HIERARCHY
ROOT SpineBase
{
  OFFSET 0.000000 0.000000 0.000000
  CHANNELS 6 Xposition Yposition Zposition Zrotation Xrotation Yrotation
  JOINT SpineMid
  {
    OFFSET 0.000000 32.894413 0.000000
    CHANNELS 3 Zrotation Xrotation Yrotation
    JOINT SpineShoulder
    {
      OFFSET 0.207425 24.469081 -0.746653
      CHANNELS 3 Zrotation Xrotation Yrotation
      JOINT Neck
      {
        OFFSET 0.123698 8.106261 -0.568083
        CHANNELS 3 Zrotation Xrotation Yrotation
        JOINT Head
        {
          OFFSET 5.002635 11.973549 4.727436
          CHANNELS 3 Zrotation Xrotation Yrotation
          End Site
          {
            OFFSET 0 0 0
          }
        }
      }
      JOINT ShoulderLeft
      {
        OFFSET -10.792406 -3.174200 -11.713436
        CHANNELS 3 Zrotation Xrotation Yrotation
        JOINT ElbowLeft
        {
          OFFSET -7.116215 -24.646369 -6.777131
          CHANNELS 3 Zrotation Xrotation Yrotation
          JOINT WristLeft
          {
            OFFSET 2.157126 -20.021456 -5.027663
            CHANNELS 3 Zrotation Xrotation Yrotation
            JOINT HandLeft
            {
              OFFSET 1.816868 -8.120425 0.444389
              CHANNELS 3 Zrotation Xrotation Yrotation
              JOINT HandTipLeft
              {
                OFFSET 2.211581 -8.480381 -1.421075
                CHANNELS 3 Zrotation Xrotation Yrotation
                End Site
                {
                  OFFSET 0 0 0
                }
              }
              JOINT ThumbLeft
              {
                OFFSET 4.525038 -0.110340 4.781378
                CHANNELS 3 Zrotation Xrotation Yrotation
                End Site
                {
                  OFFSET 0 0 0
                }
              }
            }
          }
        }
      }
      JOINT ShoulderRight
      {
        OFFSET 12.050523 -4.014699 11.143412
        CHANNELS 3 Zrotation Xrotation Yrotation
        JOINT ElbowRight
        {
          OFFSET 1.630632 -25.209476 5.066431
          CHANNELS 3 Zrotation Xrotation Yrotation
          JOINT WristRight
          {
            OFFSET 0.846073 -25.986330 0.947237
            CHANNELS 3 Zrotation Xrotation Yrotation
            JOINT HandRight
            {
              OFFSET -0.293920 -10.375956 1.028767
              CHANNELS 3 Zrotation Xrotation Yrotation
              JOINT HandTipRight
              {
                OFFSET -0.335934 -5.539475 -0.283120
                CHANNELS 3 Zrotation Xrotation Yrotation
                End Site
                {
                  OFFSET 0 0 0
                }
              }
              JOINT ThumbRight
              {
                OFFSET -2.497028 -3.355060 -2.854233
                CHANNELS 3 Zrotation Xrotation Yrotation
                End Site
                {
                  OFFSET 0 0 0
                }
              }
            }
          }
        }
      }
    }
  }
  JOINT HipLeft
  {
    OFFSET -4.909231 1.802711 -8.127900
    CHANNELS 3 Zrotation Xrotation Yrotation
    JOINT KneeLeft
    {
      OFFSET -11.288797 -32.847788 -3.405590
      CHANNELS 3 Zrotation Xrotation Yrotation
      JOINT AnkleLeft
      {
        OFFSET -9.418139 -38.066492 5.975323
        CHANNELS 3 Zrotation Xrotation Yrotation
        JOINT FootLeft
        {
          OFFSET 0.907234 -7.100976 -6.719553
          CHANNELS 3 Zrotation Xrotation Yrotation
          End Site
          {
            OFFSET 0 0 0
          }
        }
      }
    }
  }
  JOINT HipRight
  {
    OFFSET 5.580328 0.164342 1.148143
    CHANNELS 3 Zrotation Xrotation Yrotation
    JOINT KneeRight
    {
      OFFSET -5.477877 -36.603737 2.547678
      CHANNELS 3 Zrotation Xrotation Yrotation
      JOINT AnkleRight
      {
        OFFSET -9.623326 -36.335757 8.039249
        CHANNELS 3 Zrotation Xrotation Yrotation
        JOINT FootRight
        {
          OFFSET 0.773502 -7.690135 -4.711803
          CHANNELS 3 Zrotation Xrotation Yrotation
          End Site
          {
            OFFSET 0 0 0
          }
        }
      }
    }
  }
}
MOTION
Frames: 6
Frame Time: 0.033333
-32.116979 80.465286 339.649046 -0.000000 0.000000 -41.486716 0.000000 0.000000 41.486716 -0.000000 0.000000 0.000000 -0.000000 0.000000 0.000000 0.000000 0.000000 0.000000 -0.000000 0.000000 0.000000 -0.000000 0.000000 0.000000 -0.000000 0.000000 0.000000 -0.000000 0.000000 0.000000 0.000000 0.000000 0.000000 0.000000 0.000000 0.000000 -0.000000 0.000000 0.000000 -0.000000 0.000000 0.000000 -0.000000 0.000000 0.000000 -0.000000 0.000000 0.000000 0.000000 0.000000 0.000000 0.000000 0.000000 0.000000 0.000000 0.000000 41.486716 -0.000000 0.000000 0.000000 -0.000000 0.000000 0.000000 0.000000 0.000000 0.000000 0.000000 0.000000 41.486716 -0.000000 0.000000 0.000000 -0.000000 0.000000 0.000000 0.000000 0.000000 0.000000
-31.548213 80.542603 339.625347 0.066233 0.309735 -41.751981 0.156843 -0.275178 41.752179 -0.000000 0.000000 0.000000 -0.000000 0.000000 0.000000 0.000000 0.000000 0.000000 -0.000000 0.000000 0.000000 1.156485 0.380382 -0.252790 0.377735 -0.591943 0.294131 -0.969597 -1.750267 -0.633167 0.000000 0.000000 0.000000 0.000000 0.000000 0.000000 -0.000000 0.000000 0.000000 -0.000000 0.000000 0.000000 0.788371 0.595045 0.057258 -0.184131 -2.974474 0.066859 0.000000 0.000000 0.000000 0.000000 0.000000 0.000000 0.156843 -0.275178 41.752179 -0.000000 0.000000 0.000000 -0.000000 0.000000 0.000000 0.000000 0.000000 0.000000 -0.584443 -0.843367 41.669779 0.931452 -0.068443 0.075720 -0.487928 -0.851089 0.210777 0.000000 0.000000 0.000000
-31.049534 80.609031 339.596195 0.116962 0.593568 -41.977375 0.310056 -0.519490 41.978174 -0.000000 0.000000 0.000000 -0.000000 0.000000 0.000000 0.000000 0.000000 0.000000 1.333534 0.338333 -0.469524 0.723346 0.368190 0.020917 0.313771 -1.120869 0.500033 -1.524622 -2.963762 -1.035021 0.000000 0.000000 0.000000 0.000000 0.000000 0.000000 -0.000000 0.000000 0.000000 -0.308984 1.348180 0.036288 1.844801 -0.182351 0.110939 -0.582874 -5.154233 0.110915 0.000000 0.000000 0.000000 0.000000 0.000000 0.000000 -0.507078 -1.434032 42.135926 1.219435 0.129880 -0.173064 -0.000000 0.000000 0.000000 0.000000 0.000000 0.000000 -1.058665 -1.580057 41.814266 1.577286 -0.925593 0.318044 -0.660984 -0.641824 0.175526 0.000000 0.000000 0.000000
-30.620944 80.664571 339.561588 0.152053 0.851090 -42.164815 0.120226 0.059992 42.166312 0.066951 -0.019692 0.011143 -0.348578 -0.795083 -0.014706 0.000000 0.000000 0.000000 1.440135 -0.296952 -0.635506 0.926551 0.478441 0.054311 -0.152637 -1.601461 0.608639 -1.709482 -3.615830 -1.216708 0.000000 0.000000 0.000000 0.000000 0.000000 0.000000 0.472367 -1.142581 0.141529 -1.225099 2.207412 -0.085239 2.632274 -0.158509 0.172865 -1.113387 -6.741441 0.125753 0.000000 0.000000 0.000000 0.000000 0.000000 0.000000 -0.633909 -2.015384 42.387251 1.671332 0.210485 -0.249905 -0.239665 0.911175 0.342626 0.000000 0.000000 0.000000 -1.424126 -2.206879 41.927444 2.155071 -1.283673 0.435811 -0.736303 -0.656330 0.175132 0.000000 0.000000 0.000000
-30.262441 80.709223 339.521529 0.171403 1.081943 -42.315862 0.126354 0.073646 42.316240 0.079344 -0.014199 0.011871 -0.394009 -1.037049 -0.015342 0.000000 0.000000 0.000000 1.708227 -0.383531 -0.758940 1.037214 0.542328 0.101737 -1.007422 -2.043212 0.612393 -1.547539 -3.687613 -1.180521 0.000000 0.000000 0.000000 0.000000 0.000000 0.000000 0.601048 -1.348214 0.184996 -1.461098 2.571599 -0.108899 3.303362 -0.078032 0.230309 -1.721033 -7.847359 0.111718 0.000000 0.000000 0.000000 0.000000 0.000000 0.000000 -0.681288 -2.505842 42.595904 2.020573 0.302013 -0.320484 -0.447129 1.004441 0.551065 0.000000 0.000000 0.000000 -1.682039 -2.721489 42.015366 2.590201 -1.569807 0.525006 -0.639870 -0.464568 0.115043 0.000000 0.000000 0.000000
-29.974027 80.742986 339.476015 0.174936 1.285824 -42.431735 0.115470 0.083733 42.430201 0.086682 -0.002672 0.011010 -0.403593 -1.266970 -0.013401 0.000000 0.000000 0.000000 1.870428 -0.461829 -0.840115 1.061919 0.561403 0.162276 -2.259304 -2.450697 0.503786 -1.043940 -3.163240 -0.919430 0.000000 0.000000 0.000000 0.000000 0.000000 0.000000 0.715577 -1.465835 0.225083 -1.611431 2.750128 -0.132462 3.839742 0.044522 0.277967 -2.369675 -8.529518 0.071902 0.000000 0.000000 0.000000 0.000000 0.000000 0.000000 -0.651951 -2.905333 42.765287 2.268562 0.404837 -0.384853 -0.718288 0.992727 0.806792 0.000000 0.000000 0.000000 -1.833397 -3.122224 42.082870 2.881778 -1.782916 0.585186 -0.371755 -0.068172 -0.006262 0.000000 0.000000 0.000000
